<svg xmlns="http://www.w3.org/2000/svg" xmlns:xlink="http://www.w3.org/1999/xlink" width="40" zoomAndPan="magnify" viewBox="0 0 30 30.000001" height="40" preserveAspectRatio="xMidYMid meet" version="1.2"><defs/><g id="a17b70cbcc"><g style="fill:#ffffff;fill-opacity:1;"><g transform="translate(3.390986, 17.421866)"><path style="stroke:none" d="M 3.15625 -0.59375 C 3.269531 -0.34375 3.34375 -0.144531 3.375 0 C 3.414062 0.15625 3.4375 0.320312 3.4375 0.5 C 3.425781 0.976562 3.222656 1.347656 2.828125 1.609375 C 2.429688 1.878906 1.894531 2.03125 1.21875 2.0625 C 1.03125 2.0625 0.800781 2.046875 0.53125 2.015625 C 0.257812 1.984375 0.00390625 1.925781 -0.234375 1.84375 C -0.484375 1.757812 -0.675781 1.628906 -0.8125 1.453125 C -0.925781 1.296875 -0.972656 1.128906 -0.953125 0.953125 C -0.941406 0.773438 -0.863281 0.617188 -0.71875 0.484375 C -0.570312 0.359375 -0.367188 0.296875 -0.109375 0.296875 C -0.0976562 0.296875 -0.0820312 0.296875 -0.0625 0.296875 C -0.0390625 0.296875 -0.0234375 0.296875 -0.015625 0.296875 C 0.179688 0.316406 0.332031 0.375 0.4375 0.46875 C 0.539062 0.5625 0.613281 0.675781 0.65625 0.8125 C 0.707031 0.945312 0.75 1.078125 0.78125 1.203125 C 0.820312 1.328125 0.867188 1.429688 0.921875 1.515625 C 0.984375 1.609375 1.078125 1.65625 1.203125 1.65625 C 1.210938 1.65625 1.21875 1.65625 1.21875 1.65625 C 1.226562 1.65625 1.238281 1.65625 1.25 1.65625 C 1.382812 1.644531 1.488281 1.582031 1.5625 1.46875 C 1.644531 1.363281 1.679688 1.21875 1.671875 1.03125 C 1.660156 0.882812 1.613281 0.738281 1.53125 0.59375 C 1.445312 0.445312 1.304688 0.3125 1.109375 0.1875 C 0.910156 0.0507812 0.8125 -0.132812 0.8125 -0.375 L 0.8125 -2.609375 C 0.8125 -2.953125 0.78125 -3.191406 0.71875 -3.328125 C 0.664062 -3.460938 0.578125 -3.546875 0.453125 -3.578125 C 0.328125 -3.597656 0.238281 -3.644531 0.1875 -3.71875 C 0.132812 -3.800781 0.125 -3.882812 0.15625 -3.96875 C 0.195312 -4.050781 0.289062 -4.113281 0.4375 -4.15625 C 0.726562 -4.25 0.976562 -4.320312 1.1875 -4.375 C 1.40625 -4.4375 1.613281 -4.492188 1.8125 -4.546875 C 2.019531 -4.597656 2.257812 -4.660156 2.53125 -4.734375 C 2.613281 -4.753906 2.6875 -4.765625 2.75 -4.765625 C 2.90625 -4.765625 3.007812 -4.707031 3.0625 -4.59375 C 3.125 -4.476562 3.15625 -4.328125 3.15625 -4.140625 C 3.15625 -3.960938 3.15625 -3.769531 3.15625 -3.5625 C 3.15625 -3.457031 3.148438 -3.285156 3.140625 -3.046875 C 3.140625 -2.816406 3.140625 -2.554688 3.140625 -2.265625 C 3.140625 -1.972656 3.140625 -1.679688 3.140625 -1.390625 C 3.140625 -1.109375 3.140625 -0.847656 3.140625 -0.609375 C 3.148438 -0.609375 3.15625 -0.601562 3.15625 -0.59375 Z M 1.890625 -5.0625 C 1.640625 -5.0625 1.40625 -5.109375 1.1875 -5.203125 C 0.976562 -5.304688 0.8125 -5.441406 0.6875 -5.609375 C 0.570312 -5.773438 0.515625 -5.957031 0.515625 -6.15625 C 0.515625 -6.351562 0.570312 -6.535156 0.6875 -6.703125 C 0.8125 -6.867188 0.976562 -7 1.1875 -7.09375 C 1.40625 -7.1875 1.640625 -7.234375 1.890625 -7.234375 C 2.140625 -7.234375 2.363281 -7.1875 2.5625 -7.09375 C 2.769531 -7 2.929688 -6.867188 3.046875 -6.703125 C 3.171875 -6.535156 3.234375 -6.351562 3.234375 -6.15625 C 3.234375 -5.957031 3.171875 -5.773438 3.046875 -5.609375 C 2.929688 -5.441406 2.769531 -5.304688 2.5625 -5.203125 C 2.363281 -5.109375 2.140625 -5.0625 1.890625 -5.0625 Z M 1.890625 -5.0625 "/></g></g><g style="fill:#ffffff;fill-opacity:1;"><g transform="translate(6.975162, 17.421866)"><path style="stroke:none" d="M 6.03125 -1.578125 C 6.03125 -1.378906 6.0625 -1.222656 6.125 -1.109375 C 6.195312 -0.992188 6.273438 -0.894531 6.359375 -0.8125 C 6.441406 -0.738281 6.507812 -0.664062 6.5625 -0.59375 C 6.625 -0.53125 6.65625 -0.445312 6.65625 -0.34375 C 6.644531 -0.25 6.5625 -0.175781 6.40625 -0.125 C 6.25 -0.0703125 6.066406 -0.0351562 5.859375 -0.015625 C 5.648438 0.00390625 5.453125 0.0195312 5.265625 0.03125 C 5.078125 0.0390625 4.945312 0.046875 4.875 0.046875 C 4.53125 0.046875 4.273438 -0.0351562 4.109375 -0.203125 C 3.953125 -0.367188 3.847656 -0.578125 3.796875 -0.828125 C 3.753906 -1.078125 3.734375 -1.328125 3.734375 -1.578125 L 3.71875 -3.15625 C 3.644531 -3 3.53125 -2.882812 3.375 -2.8125 C 3.226562 -2.738281 3.0625 -2.640625 2.875 -2.515625 C 2.65625 -2.359375 2.515625 -2.1875 2.453125 -2 C 2.398438 -1.820312 2.394531 -1.640625 2.4375 -1.453125 C 2.445312 -1.378906 2.476562 -1.289062 2.53125 -1.1875 C 2.582031 -1.082031 2.660156 -0.988281 2.765625 -0.90625 C 2.867188 -0.832031 3.003906 -0.796875 3.171875 -0.796875 C 3.304688 -0.785156 3.382812 -0.738281 3.40625 -0.65625 C 3.4375 -0.570312 3.414062 -0.476562 3.34375 -0.375 C 3.269531 -0.269531 3.148438 -0.171875 2.984375 -0.078125 C 2.828125 0.00390625 2.632812 0.0546875 2.40625 0.078125 C 2.351562 0.0859375 2.304688 0.09375 2.265625 0.09375 C 2.222656 0.09375 2.179688 0.09375 2.140625 0.09375 C 1.765625 0.09375 1.421875 0.03125 1.109375 -0.09375 C 0.804688 -0.21875 0.566406 -0.394531 0.390625 -0.625 C 0.210938 -0.863281 0.132812 -1.144531 0.15625 -1.46875 C 0.164062 -1.757812 0.242188 -2 0.390625 -2.1875 C 0.535156 -2.382812 0.722656 -2.539062 0.953125 -2.65625 C 1.191406 -2.78125 1.457031 -2.882812 1.75 -2.96875 C 2.050781 -3.050781 2.363281 -3.128906 2.6875 -3.203125 C 3.101562 -3.304688 3.363281 -3.457031 3.46875 -3.65625 C 3.582031 -3.851562 3.59375 -4.046875 3.5 -4.234375 C 3.382812 -4.410156 3.210938 -4.5 2.984375 -4.5 C 2.835938 -4.5 2.71875 -4.460938 2.625 -4.390625 C 2.539062 -4.316406 2.46875 -4.226562 2.40625 -4.125 C 2.34375 -4.019531 2.273438 -3.910156 2.203125 -3.796875 C 2.140625 -3.691406 2.054688 -3.597656 1.953125 -3.515625 C 1.847656 -3.441406 1.703125 -3.398438 1.515625 -3.390625 C 1.515625 -3.390625 1.507812 -3.390625 1.5 -3.390625 C 1.5 -3.390625 1.492188 -3.390625 1.484375 -3.390625 C 1.304688 -3.390625 1.160156 -3.441406 1.046875 -3.546875 C 0.929688 -3.660156 0.867188 -3.800781 0.859375 -3.96875 C 0.847656 -4.132812 0.898438 -4.289062 1.015625 -4.4375 C 1.171875 -4.632812 1.382812 -4.773438 1.65625 -4.859375 C 1.925781 -4.953125 2.207031 -5.015625 2.5 -5.046875 C 2.800781 -5.078125 3.0625 -5.09375 3.28125 -5.09375 C 3.601562 -5.09375 3.914062 -5.054688 4.21875 -4.984375 C 4.519531 -4.921875 4.789062 -4.804688 5.03125 -4.640625 C 5.269531 -4.472656 5.46875 -4.238281 5.625 -3.9375 C 5.789062 -3.644531 5.890625 -3.269531 5.921875 -2.8125 C 5.929688 -2.65625 5.941406 -2.53125 5.953125 -2.4375 C 5.960938 -2.351562 5.972656 -2.25 5.984375 -2.125 C 5.992188 -2.007812 6.007812 -1.828125 6.03125 -1.578125 Z M 6.03125 -1.578125 "/></g></g><g style="fill:#ffffff;fill-opacity:1;"><g transform="translate(13.779019, 17.421866)"><path style="stroke:none" d="M 6.265625 -4.0625 C 6.296875 -3.894531 6.273438 -3.71875 6.203125 -3.53125 C 6.128906 -3.34375 6.007812 -3.179688 5.84375 -3.046875 C 5.675781 -2.921875 5.460938 -2.847656 5.203125 -2.828125 C 5.171875 -2.828125 5.144531 -2.820312 5.125 -2.8125 C 5.113281 -2.8125 5.09375 -2.8125 5.0625 -2.8125 C 4.707031 -2.8125 4.445312 -2.90625 4.28125 -3.09375 C 4.125 -3.28125 4.046875 -3.484375 4.046875 -3.703125 C 4.046875 -3.835938 4.078125 -3.957031 4.140625 -4.0625 C 4.203125 -4.175781 4.265625 -4.265625 4.328125 -4.328125 C 4.398438 -4.398438 4.445312 -4.457031 4.46875 -4.5 C 4.488281 -4.539062 4.441406 -4.5625 4.328125 -4.5625 C 4.328125 -4.5625 4.320312 -4.5625 4.3125 -4.5625 C 4.300781 -4.5625 4.296875 -4.5625 4.296875 -4.5625 C 4.128906 -4.5625 3.96875 -4.492188 3.8125 -4.359375 C 3.664062 -4.234375 3.539062 -4.0625 3.4375 -3.84375 C 3.332031 -3.632812 3.25 -3.398438 3.1875 -3.140625 C 3.132812 -2.878906 3.109375 -2.625 3.109375 -2.375 C 3.109375 -2.257812 3.109375 -2.132812 3.109375 -2 C 3.109375 -1.875 3.109375 -1.734375 3.109375 -1.578125 C 3.109375 -1.378906 3.140625 -1.222656 3.203125 -1.109375 C 3.273438 -0.992188 3.351562 -0.894531 3.4375 -0.8125 C 3.519531 -0.738281 3.59375 -0.664062 3.65625 -0.59375 C 3.71875 -0.53125 3.742188 -0.445312 3.734375 -0.34375 C 3.722656 -0.25 3.644531 -0.175781 3.5 -0.125 C 3.351562 -0.0703125 3.175781 -0.0351562 2.96875 -0.015625 C 2.757812 0.00390625 2.5625 0.0195312 2.375 0.03125 C 2.195312 0.0390625 2.070312 0.046875 2 0.046875 C 1.925781 0.046875 1.796875 0.0390625 1.609375 0.03125 C 1.429688 0.0195312 1.234375 0.00390625 1.015625 -0.015625 C 0.804688 -0.046875 0.625 -0.0859375 0.46875 -0.140625 C 0.3125 -0.191406 0.226562 -0.257812 0.21875 -0.34375 C 0.195312 -0.445312 0.21875 -0.53125 0.28125 -0.59375 C 0.34375 -0.664062 0.414062 -0.738281 0.5 -0.8125 C 0.59375 -0.894531 0.675781 -0.992188 0.75 -1.109375 C 0.820312 -1.234375 0.859375 -1.390625 0.859375 -1.578125 L 0.859375 -2.609375 C 0.859375 -2.953125 0.828125 -3.191406 0.765625 -3.328125 C 0.710938 -3.460938 0.628906 -3.539062 0.515625 -3.5625 C 0.390625 -3.59375 0.300781 -3.644531 0.25 -3.71875 C 0.195312 -3.800781 0.1875 -3.882812 0.21875 -3.96875 C 0.257812 -4.050781 0.347656 -4.113281 0.484375 -4.15625 C 0.765625 -4.25 1 -4.328125 1.1875 -4.390625 C 1.375 -4.460938 1.546875 -4.539062 1.703125 -4.625 C 1.859375 -4.71875 2.03125 -4.832031 2.21875 -4.96875 C 2.34375 -5.0625 2.453125 -5.109375 2.546875 -5.109375 C 2.648438 -5.109375 2.726562 -5.054688 2.78125 -4.953125 C 2.84375 -4.859375 2.890625 -4.734375 2.921875 -4.578125 C 2.960938 -4.429688 3 -4.28125 3.03125 -4.125 C 3.226562 -4.46875 3.46875 -4.738281 3.75 -4.9375 C 4.039062 -5.144531 4.382812 -5.25 4.78125 -5.25 C 5.164062 -5.25 5.5 -5.144531 5.78125 -4.9375 C 6.0625 -4.726562 6.222656 -4.4375 6.265625 -4.0625 Z M 6.265625 -4.0625 "/></g></g><g style="fill:#ffffff;fill-opacity:1;"><g transform="translate(20.157631, 17.421866)"><path style="stroke:none" d="M 6.6875 -1.34375 C 6.84375 -1.175781 6.976562 -1.050781 7.09375 -0.96875 C 7.207031 -0.894531 7.300781 -0.820312 7.375 -0.75 C 7.445312 -0.6875 7.484375 -0.585938 7.484375 -0.453125 C 7.484375 -0.328125 7.410156 -0.226562 7.265625 -0.15625 C 7.128906 -0.0820312 6.960938 -0.03125 6.765625 0 C 6.578125 0.03125 6.394531 0.046875 6.21875 0.046875 C 6.039062 0.0546875 5.914062 0.0625 5.84375 0.0625 C 5.769531 0.0625 5.648438 0.0546875 5.484375 0.046875 C 5.328125 0.046875 5.15625 0.03125 4.96875 0 C 4.789062 -0.0195312 4.632812 -0.0546875 4.5 -0.109375 C 4.363281 -0.160156 4.28125 -0.238281 4.25 -0.34375 C 4.21875 -0.425781 4.210938 -0.507812 4.234375 -0.59375 C 4.253906 -0.6875 4.273438 -0.78125 4.296875 -0.875 C 4.316406 -0.976562 4.3125 -1.09375 4.28125 -1.21875 C 4.257812 -1.351562 4.1875 -1.507812 4.0625 -1.6875 C 3.9375 -1.882812 3.816406 -2.0625 3.703125 -2.21875 C 3.585938 -2.375 3.488281 -2.503906 3.40625 -2.609375 C 3.351562 -2.578125 3.304688 -2.546875 3.265625 -2.515625 C 3.222656 -2.484375 3.1875 -2.453125 3.15625 -2.421875 C 3.15625 -2.265625 3.15625 -2.113281 3.15625 -1.96875 C 3.15625 -1.832031 3.15625 -1.703125 3.15625 -1.578125 C 3.15625 -1.378906 3.1875 -1.222656 3.25 -1.109375 C 3.3125 -0.992188 3.382812 -0.894531 3.46875 -0.8125 C 3.5625 -0.738281 3.640625 -0.664062 3.703125 -0.59375 C 3.765625 -0.53125 3.789062 -0.445312 3.78125 -0.34375 C 3.769531 -0.25 3.6875 -0.175781 3.53125 -0.125 C 3.375 -0.0703125 3.191406 -0.0351562 2.984375 -0.015625 C 2.773438 0.00390625 2.578125 0.0195312 2.390625 0.03125 C 2.203125 0.0390625 2.070312 0.046875 2 0.046875 C 1.925781 0.046875 1.796875 0.0390625 1.609375 0.03125 C 1.429688 0.0195312 1.234375 0.00390625 1.015625 -0.015625 C 0.804688 -0.046875 0.625 -0.0859375 0.46875 -0.140625 C 0.3125 -0.191406 0.226562 -0.257812 0.21875 -0.34375 C 0.195312 -0.445312 0.21875 -0.53125 0.28125 -0.59375 C 0.34375 -0.664062 0.414062 -0.738281 0.5 -0.8125 C 0.59375 -0.894531 0.675781 -0.992188 0.75 -1.109375 C 0.820312 -1.234375 0.859375 -1.390625 0.859375 -1.578125 L 0.859375 -4.5625 C 0.859375 -4.894531 0.828125 -5.128906 0.765625 -5.265625 C 0.710938 -5.410156 0.628906 -5.492188 0.515625 -5.515625 C 0.390625 -5.546875 0.300781 -5.597656 0.25 -5.671875 C 0.195312 -5.753906 0.1875 -5.835938 0.21875 -5.921875 C 0.257812 -6.003906 0.347656 -6.066406 0.484375 -6.109375 C 0.765625 -6.203125 1.007812 -6.28125 1.21875 -6.34375 C 1.425781 -6.414062 1.632812 -6.492188 1.84375 -6.578125 C 2.050781 -6.671875 2.285156 -6.785156 2.546875 -6.921875 C 2.679688 -6.992188 2.785156 -7.03125 2.859375 -7.03125 C 2.984375 -7.03125 3.066406 -6.960938 3.109375 -6.828125 C 3.148438 -6.691406 3.171875 -6.523438 3.171875 -6.328125 C 3.171875 -6.140625 3.164062 -5.953125 3.15625 -5.765625 C 3.15625 -5.660156 3.15625 -5.484375 3.15625 -5.234375 C 3.15625 -4.992188 3.15625 -4.707031 3.15625 -4.375 C 3.15625 -4.050781 3.15625 -3.71875 3.15625 -3.375 C 3.394531 -3.53125 3.597656 -3.660156 3.765625 -3.765625 C 3.929688 -3.878906 4.066406 -3.972656 4.171875 -4.046875 C 4.367188 -4.179688 4.5 -4.28125 4.5625 -4.34375 C 4.632812 -4.40625 4.664062 -4.457031 4.65625 -4.5 C 4.644531 -4.539062 4.625 -4.585938 4.59375 -4.640625 C 4.5625 -4.703125 4.550781 -4.785156 4.5625 -4.890625 C 4.582031 -4.984375 4.632812 -5.054688 4.71875 -5.109375 C 4.8125 -5.160156 4.921875 -5.195312 5.046875 -5.21875 C 5.179688 -5.25 5.3125 -5.265625 5.4375 -5.265625 C 5.5625 -5.273438 5.664062 -5.28125 5.75 -5.28125 C 5.8125 -5.28125 5.898438 -5.273438 6.015625 -5.265625 C 6.128906 -5.253906 6.242188 -5.234375 6.359375 -5.203125 C 6.484375 -5.179688 6.582031 -5.144531 6.65625 -5.09375 C 6.738281 -5.039062 6.78125 -4.96875 6.78125 -4.875 C 6.78125 -4.738281 6.707031 -4.628906 6.5625 -4.546875 C 6.425781 -4.460938 6.25 -4.375 6.03125 -4.28125 C 5.8125 -4.1875 5.578125 -4.054688 5.328125 -3.890625 C 5.304688 -3.878906 5.273438 -3.859375 5.234375 -3.828125 C 5.203125 -3.804688 5.160156 -3.78125 5.109375 -3.75 C 5.410156 -3.257812 5.6875 -2.804688 5.9375 -2.390625 C 6.1875 -1.972656 6.4375 -1.625 6.6875 -1.34375 Z M 6.6875 -1.34375 "/></g></g></g></svg>