<svg xmlns="http://www.w3.org/2000/svg" xmlns:xlink="http://www.w3.org/1999/xlink" width="40" zoomAndPan="magnify" viewBox="0 0 30 30.000001" height="40" preserveAspectRatio="xMidYMid meet" version="1.2"><defs><clipPath id="9e6d54ec67"><path d="M 0.484375 0 L 29.515625 0 L 29.515625 29.03125 L 0.484375 29.03125 Z M 0.484375 0 "/></clipPath><clipPath id="9df775311e"><path d="M 0.484375 11 L 11 11 L 11 24 L 0.484375 24 Z M 0.484375 11 "/></clipPath><clipPath id="a6baa0de6f"><path d="M 21 17 L 29.515625 17 L 29.515625 29 L 21 29 Z M 21 17 "/></clipPath></defs><g id="62f1284866"><g clip-rule="nonzero" clip-path="url(#9e6d54ec67)"><path style=" stroke:none;fill-rule:nonzero;fill:#ffffff;fill-opacity:1;" d="M 0.484375 0 L 29.515625 0 L 29.515625 29.03125 L 0.484375 29.03125 Z M 0.484375 0 "/><path style=" stroke:none;fill-rule:nonzero;fill:#000000;fill-opacity:1;" d="M 0.484375 0 L 29.515625 0 L 29.515625 29.03125 L 0.484375 29.03125 Z M 0.484375 0 "/></g><g clip-rule="nonzero" clip-path="url(#9df775311e)"><g style="fill:#ffffff;fill-opacity:1;"><g transform="translate(1.000735, 19.008932)"><path style="stroke:none" d="M 3.3125 2.1875 C 3.207031 2.507812 3.109375 2.757812 3.015625 2.9375 C 2.921875 3.113281 2.796875 3.269531 2.640625 3.40625 C 2.203125 3.84375 1.691406 4.003906 1.109375 3.890625 C 0.535156 3.773438 -0.0625 3.441406 -0.6875 2.890625 C -0.863281 2.722656 -1.054688 2.507812 -1.265625 2.25 C -1.484375 2 -1.660156 1.726562 -1.796875 1.4375 C -1.941406 1.15625 -2.003906 0.875 -1.984375 0.59375 C -1.953125 0.363281 -1.847656 0.171875 -1.671875 0.015625 C -1.503906 -0.128906 -1.300781 -0.191406 -1.0625 -0.171875 C -0.820312 -0.160156 -0.585938 -0.046875 -0.359375 0.171875 C -0.347656 0.179688 -0.332031 0.195312 -0.3125 0.21875 C -0.289062 0.238281 -0.28125 0.25 -0.28125 0.25 C -0.113281 0.445312 -0.0195312 0.628906 0 0.796875 C 0.0078125 0.960938 -0.0195312 1.125 -0.09375 1.28125 C -0.175781 1.445312 -0.253906 1.601562 -0.328125 1.75 C -0.398438 1.90625 -0.453125 2.046875 -0.484375 2.171875 C -0.515625 2.296875 -0.472656 2.414062 -0.359375 2.53125 C -0.347656 2.539062 -0.34375 2.546875 -0.34375 2.546875 C -0.34375 2.546875 -0.335938 2.550781 -0.328125 2.5625 C -0.203125 2.65625 -0.0546875 2.6875 0.109375 2.65625 C 0.273438 2.632812 0.4375 2.539062 0.59375 2.375 C 0.71875 2.238281 0.800781 2.066406 0.84375 1.859375 C 0.894531 1.660156 0.890625 1.410156 0.828125 1.109375 C 0.765625 0.828125 0.835938 0.578125 1.046875 0.359375 L 2.984375 -1.625 C 3.273438 -1.925781 3.457031 -2.160156 3.53125 -2.328125 C 3.601562 -2.503906 3.59375 -2.660156 3.5 -2.796875 C 3.40625 -2.921875 3.367188 -3.039062 3.390625 -3.15625 C 3.410156 -3.269531 3.472656 -3.34375 3.578125 -3.375 C 3.679688 -3.414062 3.816406 -3.398438 3.984375 -3.328125 C 4.316406 -3.160156 4.601562 -3.007812 4.84375 -2.875 C 5.082031 -2.738281 5.316406 -2.601562 5.546875 -2.46875 C 5.773438 -2.34375 6.046875 -2.195312 6.359375 -2.03125 C 6.441406 -1.976562 6.507812 -1.925781 6.5625 -1.875 C 6.707031 -1.738281 6.753906 -1.59375 6.703125 -1.4375 C 6.648438 -1.289062 6.546875 -1.132812 6.390625 -0.96875 C 6.242188 -0.800781 6.070312 -0.628906 5.875 -0.453125 C 5.78125 -0.359375 5.632812 -0.207031 5.4375 0 C 5.238281 0.207031 5.015625 0.4375 4.765625 0.6875 C 4.515625 0.945312 4.257812 1.207031 4 1.46875 C 3.75 1.726562 3.519531 1.96875 3.3125 2.1875 Z M 6.0625 -2.859375 C 5.832031 -3.078125 5.664062 -3.320312 5.5625 -3.59375 C 5.46875 -3.875 5.4375 -4.140625 5.46875 -4.390625 C 5.5 -4.640625 5.601562 -4.851562 5.78125 -5.03125 C 5.957031 -5.21875 6.171875 -5.328125 6.421875 -5.359375 C 6.671875 -5.398438 6.929688 -5.375 7.203125 -5.28125 C 7.472656 -5.1875 7.722656 -5.03125 7.953125 -4.8125 C 8.171875 -4.601562 8.328125 -4.363281 8.421875 -4.09375 C 8.523438 -3.820312 8.5625 -3.5625 8.53125 -3.3125 C 8.5 -3.070312 8.394531 -2.859375 8.21875 -2.671875 C 8.039062 -2.492188 7.828125 -2.382812 7.578125 -2.34375 C 7.328125 -2.300781 7.066406 -2.320312 6.796875 -2.40625 C 6.523438 -2.5 6.28125 -2.648438 6.0625 -2.859375 Z M 6.0625 -2.859375 "/></g></g></g><g style="fill:#ffffff;fill-opacity:1;"><g transform="translate(5.002718, 23.050448)"><path style="stroke:none" d="M 7.546875 1.75 C 7.429688 1.96875 7.375 2.160156 7.375 2.328125 C 7.382812 2.492188 7.410156 2.640625 7.453125 2.765625 C 7.503906 2.898438 7.539062 3.023438 7.5625 3.140625 C 7.59375 3.253906 7.578125 3.363281 7.515625 3.46875 C 7.441406 3.570312 7.304688 3.601562 7.109375 3.5625 C 6.910156 3.53125 6.6875 3.46875 6.4375 3.375 C 6.195312 3.28125 5.972656 3.179688 5.765625 3.078125 C 5.566406 2.984375 5.425781 2.914062 5.34375 2.875 C 4.96875 2.675781 4.738281 2.4375 4.65625 2.15625 C 4.570312 1.875 4.578125 1.582031 4.671875 1.28125 C 4.765625 0.976562 4.882812 0.691406 5.03125 0.421875 L 5.90625 -1.328125 C 5.738281 -1.179688 5.546875 -1.113281 5.328125 -1.125 C 5.117188 -1.144531 4.882812 -1.132812 4.625 -1.09375 C 4.300781 -1.050781 4.050781 -0.945312 3.875 -0.78125 C 3.695312 -0.613281 3.578125 -0.414062 3.515625 -0.1875 C 3.484375 -0.09375 3.460938 0.0195312 3.453125 0.15625 C 3.453125 0.289062 3.488281 0.429688 3.5625 0.578125 C 3.644531 0.734375 3.773438 0.863281 3.953125 0.96875 C 4.097656 1.050781 4.160156 1.144531 4.140625 1.25 C 4.117188 1.351562 4.035156 1.441406 3.890625 1.515625 C 3.742188 1.597656 3.554688 1.640625 3.328125 1.640625 C 3.097656 1.648438 2.851562 1.59375 2.59375 1.46875 C 2.539062 1.445312 2.488281 1.425781 2.4375 1.40625 C 2.394531 1.382812 2.347656 1.359375 2.296875 1.328125 C 1.890625 1.117188 1.550781 0.851562 1.28125 0.53125 C 1.019531 0.21875 0.859375 -0.113281 0.796875 -0.46875 C 0.734375 -0.820312 0.804688 -1.175781 1.015625 -1.53125 C 1.203125 -1.84375 1.425781 -2.0625 1.6875 -2.1875 C 1.957031 -2.3125 2.257812 -2.367188 2.59375 -2.359375 C 2.925781 -2.359375 3.28125 -2.316406 3.65625 -2.234375 C 4.03125 -2.160156 4.414062 -2.070312 4.8125 -1.96875 C 5.320312 -1.84375 5.695312 -1.851562 5.9375 -2 C 6.175781 -2.15625 6.296875 -2.359375 6.296875 -2.609375 C 6.273438 -2.890625 6.140625 -3.097656 5.890625 -3.234375 C 5.734375 -3.316406 5.582031 -3.34375 5.4375 -3.3125 C 5.300781 -3.28125 5.164062 -3.222656 5.03125 -3.140625 C 4.90625 -3.066406 4.773438 -2.988281 4.640625 -2.90625 C 4.503906 -2.820312 4.351562 -2.769531 4.1875 -2.75 C 4.019531 -2.726562 3.835938 -2.765625 3.640625 -2.859375 C 3.628906 -2.859375 3.617188 -2.859375 3.609375 -2.859375 C 3.609375 -2.867188 3.601562 -2.875 3.59375 -2.875 C 3.40625 -2.976562 3.28125 -3.117188 3.21875 -3.296875 C 3.15625 -3.484375 3.160156 -3.671875 3.234375 -3.859375 C 3.316406 -4.054688 3.46875 -4.195312 3.6875 -4.28125 C 3.96875 -4.40625 4.28125 -4.441406 4.625 -4.390625 C 4.976562 -4.335938 5.328125 -4.238281 5.671875 -4.09375 C 6.015625 -3.957031 6.3125 -3.820312 6.5625 -3.6875 C 6.914062 -3.507812 7.234375 -3.296875 7.515625 -3.046875 C 7.804688 -2.796875 8.039062 -2.507812 8.21875 -2.1875 C 8.394531 -1.863281 8.476562 -1.492188 8.46875 -1.078125 C 8.46875 -0.660156 8.359375 -0.191406 8.140625 0.328125 C 8.066406 0.515625 8.003906 0.65625 7.953125 0.75 C 7.910156 0.851562 7.859375 0.972656 7.796875 1.109375 C 7.742188 1.253906 7.660156 1.46875 7.546875 1.75 Z M 7.546875 1.75 "/></g></g><g style="fill:#ffffff;fill-opacity:1;"><g transform="translate(13.986112, 27.407865)"><path style="stroke:none" d="M 8.328125 -4.09375 C 8.347656 -3.863281 8.296875 -3.632812 8.171875 -3.40625 C 8.054688 -3.1875 7.882812 -3.007812 7.65625 -2.875 C 7.4375 -2.738281 7.164062 -2.679688 6.84375 -2.703125 C 6.8125 -2.703125 6.78125 -2.703125 6.75 -2.703125 C 6.726562 -2.703125 6.695312 -2.703125 6.65625 -2.703125 C 6.21875 -2.765625 5.914062 -2.921875 5.75 -3.171875 C 5.582031 -3.421875 5.507812 -3.679688 5.53125 -3.953125 C 5.5625 -4.128906 5.625 -4.273438 5.71875 -4.390625 C 5.8125 -4.515625 5.90625 -4.613281 6 -4.6875 C 6.09375 -4.757812 6.148438 -4.816406 6.171875 -4.859375 C 6.203125 -4.910156 6.15625 -4.945312 6.03125 -4.96875 C 6.019531 -4.96875 6.007812 -4.96875 6 -4.96875 C 5.988281 -4.976562 5.984375 -4.984375 5.984375 -4.984375 C 5.773438 -5.003906 5.566406 -4.945312 5.359375 -4.8125 C 5.160156 -4.675781 4.976562 -4.484375 4.8125 -4.234375 C 4.65625 -3.984375 4.519531 -3.703125 4.40625 -3.390625 C 4.289062 -3.078125 4.21875 -2.765625 4.1875 -2.453125 C 4.164062 -2.316406 4.144531 -2.164062 4.125 -2 C 4.101562 -1.84375 4.082031 -1.671875 4.0625 -1.484375 C 4.03125 -1.234375 4.046875 -1.03125 4.109375 -0.875 C 4.179688 -0.726562 4.265625 -0.601562 4.359375 -0.5 C 4.453125 -0.394531 4.535156 -0.289062 4.609375 -0.1875 C 4.679688 -0.09375 4.695312 0.015625 4.65625 0.140625 C 4.632812 0.253906 4.523438 0.328125 4.328125 0.359375 C 4.140625 0.398438 3.914062 0.421875 3.65625 0.421875 C 3.40625 0.429688 3.164062 0.421875 2.9375 0.390625 C 2.71875 0.367188 2.5625 0.351562 2.46875 0.34375 C 2.382812 0.332031 2.222656 0.3125 1.984375 0.28125 C 1.753906 0.25 1.515625 0.195312 1.265625 0.125 C 1.015625 0.0625 0.796875 -0.0078125 0.609375 -0.09375 C 0.421875 -0.1875 0.320312 -0.285156 0.3125 -0.390625 C 0.3125 -0.515625 0.351562 -0.613281 0.4375 -0.6875 C 0.53125 -0.769531 0.640625 -0.851562 0.765625 -0.9375 C 0.890625 -1.019531 1 -1.128906 1.09375 -1.265625 C 1.195312 -1.398438 1.265625 -1.585938 1.296875 -1.828125 L 1.453125 -3.09375 C 1.503906 -3.507812 1.503906 -3.804688 1.453125 -3.984375 C 1.410156 -4.160156 1.316406 -4.269531 1.171875 -4.3125 C 1.035156 -4.375 0.9375 -4.453125 0.875 -4.546875 C 0.820312 -4.648438 0.820312 -4.75 0.875 -4.84375 C 0.9375 -4.945312 1.054688 -5.015625 1.234375 -5.046875 C 1.578125 -5.117188 1.867188 -5.179688 2.109375 -5.234375 C 2.359375 -5.296875 2.585938 -5.367188 2.796875 -5.453125 C 3.003906 -5.535156 3.234375 -5.648438 3.484375 -5.796875 C 3.660156 -5.890625 3.800781 -5.929688 3.90625 -5.921875 C 4.03125 -5.898438 4.117188 -5.820312 4.171875 -5.6875 C 4.234375 -5.5625 4.273438 -5.398438 4.296875 -5.203125 C 4.316406 -5.015625 4.335938 -4.828125 4.359375 -4.640625 C 4.648438 -5.023438 4.984375 -5.320312 5.359375 -5.53125 C 5.742188 -5.738281 6.179688 -5.8125 6.671875 -5.75 C 7.148438 -5.695312 7.546875 -5.519531 7.859375 -5.21875 C 8.171875 -4.925781 8.328125 -4.550781 8.328125 -4.09375 Z M 8.328125 -4.09375 "/></g></g><g clip-rule="nonzero" clip-path="url(#a6baa0de6f)"><g style="fill:#ffffff;fill-opacity:1;"><g transform="translate(23.536426, 28.398353)"><path style="stroke:none" d="M 7.578125 -3.78125 C 7.816406 -3.644531 8.019531 -3.546875 8.1875 -3.484375 C 8.351562 -3.429688 8.488281 -3.375 8.59375 -3.3125 C 8.695312 -3.257812 8.773438 -3.148438 8.828125 -2.984375 C 8.859375 -2.835938 8.800781 -2.695312 8.65625 -2.5625 C 8.519531 -2.4375 8.335938 -2.320312 8.109375 -2.21875 C 7.890625 -2.125 7.671875 -2.039062 7.453125 -1.96875 C 7.242188 -1.90625 7.097656 -1.859375 7.015625 -1.828125 C 6.929688 -1.804688 6.789062 -1.769531 6.59375 -1.71875 C 6.394531 -1.675781 6.179688 -1.640625 5.953125 -1.609375 C 5.734375 -1.585938 5.53125 -1.582031 5.34375 -1.59375 C 5.164062 -1.613281 5.039062 -1.679688 4.96875 -1.796875 C 4.90625 -1.898438 4.875 -2.003906 4.875 -2.109375 C 4.882812 -2.222656 4.882812 -2.34375 4.875 -2.46875 C 4.863281 -2.59375 4.816406 -2.726562 4.734375 -2.875 C 4.660156 -3.019531 4.53125 -3.175781 4.34375 -3.34375 C 4.101562 -3.539062 3.890625 -3.710938 3.703125 -3.859375 C 3.515625 -4.015625 3.347656 -4.140625 3.203125 -4.234375 C 3.171875 -4.191406 3.132812 -4.140625 3.09375 -4.078125 C 3.050781 -4.023438 3.007812 -3.972656 2.96875 -3.921875 C 3.019531 -3.742188 3.066406 -3.566406 3.109375 -3.390625 C 3.160156 -3.222656 3.207031 -3.070312 3.25 -2.9375 C 3.3125 -2.6875 3.398438 -2.503906 3.515625 -2.390625 C 3.640625 -2.273438 3.765625 -2.1875 3.890625 -2.125 C 4.023438 -2.0625 4.140625 -2 4.234375 -1.9375 C 4.335938 -1.875 4.394531 -1.773438 4.40625 -1.640625 C 4.425781 -1.523438 4.351562 -1.410156 4.1875 -1.296875 C 4.019531 -1.191406 3.816406 -1.085938 3.578125 -0.984375 C 3.335938 -0.890625 3.101562 -0.804688 2.875 -0.734375 C 2.65625 -0.671875 2.5 -0.628906 2.40625 -0.609375 C 2.332031 -0.585938 2.179688 -0.546875 1.953125 -0.484375 C 1.722656 -0.429688 1.476562 -0.390625 1.21875 -0.359375 C 0.957031 -0.328125 0.722656 -0.3125 0.515625 -0.3125 C 0.316406 -0.320312 0.191406 -0.375 0.140625 -0.46875 C 0.0859375 -0.59375 0.0859375 -0.707031 0.140625 -0.8125 C 0.191406 -0.914062 0.257812 -1.03125 0.34375 -1.15625 C 0.425781 -1.28125 0.488281 -1.421875 0.53125 -1.578125 C 0.582031 -1.742188 0.578125 -1.945312 0.515625 -2.1875 L -0.453125 -5.734375 C -0.566406 -6.140625 -0.679688 -6.414062 -0.796875 -6.5625 C -0.910156 -6.71875 -1.039062 -6.789062 -1.1875 -6.78125 C -1.34375 -6.769531 -1.460938 -6.800781 -1.546875 -6.875 C -1.628906 -6.957031 -1.664062 -7.054688 -1.65625 -7.171875 C -1.644531 -7.285156 -1.5625 -7.382812 -1.40625 -7.46875 C -1.113281 -7.675781 -0.847656 -7.851562 -0.609375 -8 C -0.378906 -8.15625 -0.160156 -8.316406 0.046875 -8.484375 C 0.265625 -8.660156 0.507812 -8.878906 0.78125 -9.140625 C 0.914062 -9.253906 1.03125 -9.328125 1.125 -9.359375 C 1.269531 -9.398438 1.390625 -9.34375 1.484375 -9.1875 C 1.578125 -9.039062 1.65625 -8.851562 1.71875 -8.625 C 1.78125 -8.394531 1.835938 -8.164062 1.890625 -7.9375 C 1.921875 -7.8125 1.972656 -7.597656 2.046875 -7.296875 C 2.128906 -7.003906 2.222656 -6.664062 2.328125 -6.28125 C 2.429688 -5.894531 2.539062 -5.492188 2.65625 -5.078125 C 2.894531 -5.347656 3.097656 -5.570312 3.265625 -5.75 C 3.429688 -5.9375 3.566406 -6.097656 3.671875 -6.234375 C 3.867188 -6.453125 3.992188 -6.609375 4.046875 -6.703125 C 4.109375 -6.804688 4.125 -6.878906 4.09375 -6.921875 C 4.070312 -6.960938 4.03125 -7.007812 3.96875 -7.0625 C 3.914062 -7.125 3.878906 -7.222656 3.859375 -7.359375 C 3.859375 -7.472656 3.898438 -7.578125 3.984375 -7.671875 C 4.066406 -7.765625 4.179688 -7.847656 4.328125 -7.921875 C 4.484375 -7.992188 4.632812 -8.050781 4.78125 -8.09375 C 4.9375 -8.144531 5.0625 -8.179688 5.15625 -8.203125 C 5.226562 -8.222656 5.335938 -8.25 5.484375 -8.28125 C 5.628906 -8.3125 5.773438 -8.328125 5.921875 -8.328125 C 6.078125 -8.328125 6.207031 -8.304688 6.3125 -8.265625 C 6.425781 -8.234375 6.5 -8.164062 6.53125 -8.0625 C 6.570312 -7.894531 6.519531 -7.738281 6.375 -7.59375 C 6.238281 -7.445312 6.054688 -7.28125 5.828125 -7.09375 C 5.597656 -6.914062 5.359375 -6.691406 5.109375 -6.421875 C 5.085938 -6.390625 5.054688 -6.351562 5.015625 -6.3125 C 4.972656 -6.269531 4.9375 -6.222656 4.90625 -6.171875 C 5.414062 -5.691406 5.890625 -5.238281 6.328125 -4.8125 C 6.765625 -4.382812 7.179688 -4.039062 7.578125 -3.78125 Z M 7.578125 -3.78125 "/></g></g></g></g></svg>